<?xml version="1.0" encoding="UTF-8"?> <svg xmlns="http://www.w3.org/2000/svg" viewBox="0 0 64 64"><defs><style>.cls-1{fill:#787878;}.cls-2{fill:#fff;}</style></defs><g id="Layer_2" data-name="Layer 2"><g id="Layer_1-2" data-name="Layer 1"><circle class="cls-1" cx="32" cy="32" r="32"></circle><g id="Iconly_Light-outline_Document" data-name="Iconly Light-outline Document"><g id="Document-6"><path id="Document-7" class="cls-2" d="M26.85,45.33a9.12,9.12,0,0,1-1.56-.13L25,45.15a5.92,5.92,0,0,1-3.68-2.25A7.34,7.34,0,0,1,20,38.39V25.61a9.26,9.26,0,0,1,.08-1.28c.46-3.6,2.93-5.66,6.76-5.66h10.3c4.25,0,6.81,2.56,6.85,6.84V38.39c0,4.34-2.56,6.94-6.85,6.94ZM21.92,25.61V38.39c0,3.31,1.66,5,4.93,5H37.14c3.26,0,4.92-1.69,4.92-5V25.61c0-3.31-1.66-5-4.92-5H26.85C23.58,20.61,21.92,22.3,21.92,25.61Zm5.26,13a1,1,0,0,1,0-1.93h9.61a1,1,0,1,1,0,1.93ZM36.79,33H27.18a1,1,0,0,1,0-1.94h9.61a.94.94,0,0,1,.92.45,1,1,0,0,1,0,1,1,1,0,0,1-.92.45Zm-9.6-5.64a1,1,0,0,1-.85-1.09,1,1,0,0,1,.85-.85h3.66a1,1,0,0,1,.85,1.09,1,1,0,0,1-.85.85Z"></path></g></g></g></g></svg> 